<svg width="46" height="46" viewBox="0 0 46 46" fill="none" xmlns="http://www.w3.org/2000/svg">
<g clip-path="url(#clip0_57_226)">
<path d="M45.4715 25.5777V42.6295H42.6295V39.7875H2.84197V42.6295H0V25.5777H2.84197V28.0866L8.5259 16.7187V2.84192H11.3679V5.68389H34.1036V2.84192H36.9456V11.3678C37.3452 11.3678 37.7153 11.4418 38.0557 11.5898C38.3962 11.7379 38.6922 11.9377 38.9438 12.1893C39.1955 12.441 39.4027 12.7444 39.5655 13.0996C39.7283 13.4549 39.8023 13.8249 39.7875 14.2098V19.8937C39.7875 20.471 39.6321 20.9891 39.3213 21.4479L42.6295 28.0866V25.5777H45.4715ZM25.5777 14.2098V19.8937H36.9456V14.2098H25.5777ZM11.3679 8.52585V17.0518H22.7357V14.2098C22.7357 13.8101 22.8097 13.4401 22.9578 13.0996C23.1058 12.7592 23.3056 12.4632 23.5572 12.2115C23.8089 11.9599 24.1123 11.7527 24.4676 11.5898C24.8228 11.427 25.1929 11.353 25.5777 11.3678H34.1036V8.52585H11.3679ZM5.86156 28.4196H39.6099L36.7679 22.7357H25.5777C25.178 22.7357 24.808 22.6617 24.4676 22.5137C24.1271 22.3656 23.8311 22.1658 23.5794 21.9142C23.3278 21.6625 23.1206 21.3591 22.9578 21.0039C22.7949 20.6486 22.7209 20.2786 22.7357 19.8937H10.1023L5.86156 28.4196ZM42.6295 36.9455V31.2616H2.84197V36.9455H42.6295Z" fill="#D85A30"/>
</g>
<defs>
<clipPath id="clip0_57_226">
<rect width="45.4715" height="45.4715" fill="white"/>
</clipPath>
</defs>
</svg>
