<svg width="43" height="43" viewBox="0 0 43 43" fill="none" xmlns="http://www.w3.org/2000/svg">
<path d="M7.10498 14.2099V28.4197C7.10498 32.6063 7.10498 34.6987 8.40518 36.0007C9.70538 37.3027 11.7996 37.3009 15.9861 37.3009H26.6435C30.8301 37.3009 32.9225 37.3009 34.2244 36.0007C35.5246 34.6987 35.5246 32.6063 35.5246 28.4197V7.10498" stroke="#D85A30" stroke-width="1.89464" stroke-linecap="round" stroke-linejoin="round"/>
<path d="M15.9861 37.3009V30.1959C15.9861 28.7827 16.5475 27.4273 17.5468 26.428C18.5462 25.4287 19.9015 24.8673 21.3148 24.8673C22.728 24.8673 24.0834 25.4287 25.0827 26.428C26.0821 27.4273 26.6435 28.7827 26.6435 30.1959V37.3009M39.0771 15.9861L27.1231 8.11386C24.3042 6.2577 22.8956 5.32874 21.3148 5.32874C19.7339 5.32874 18.3254 6.2577 15.5065 8.11386L3.55249 15.9861" stroke="#D85A30" stroke-width="1.89464" stroke-linecap="round" stroke-linejoin="round"/>
<path d="M21.5369 16.4301H21.3149M21.759 16.4301C21.759 16.5479 21.7122 16.6609 21.6289 16.7441C21.5456 16.8274 21.4327 16.8742 21.3149 16.8742C21.1971 16.8742 21.0842 16.8274 21.0009 16.7441C20.9176 16.6609 20.8708 16.5479 20.8708 16.4301C20.8708 16.3124 20.9176 16.1994 21.0009 16.1161C21.0842 16.0329 21.1971 15.9861 21.3149 15.9861C21.4327 15.9861 21.5456 16.0329 21.6289 16.1161C21.7122 16.1994 21.759 16.3124 21.759 16.4301Z" stroke="#D85A30" stroke-width="1.89464" stroke-linecap="round" stroke-linejoin="round"/>
</svg>
