<svg width="45" height="45" viewBox="0 0 45 45" fill="none" xmlns="http://www.w3.org/2000/svg">
<path d="M13.9137 5.56543L11.1309 8.34819L13.9137 11.1309L16.6964 8.34819L13.9137 5.56543ZM16.6964 8.34819L19.4792 11.1309L22.262 8.34819L19.4792 5.56543L16.6964 8.34819ZM22.262 8.34819L25.0447 11.1309L27.8275 8.34819L25.0447 5.56543L22.262 8.34819ZM27.8275 8.34819L30.6102 11.1309L33.393 8.34819L30.6102 5.56543L27.8275 8.34819ZM30.6102 11.1309H6.95679V38.9585H37.5671V11.1309H30.6102ZM9.73955 13.9137H34.7844V36.1758H26.4361V29.2189H18.0878V36.1758H9.73955V13.9137ZM12.5223 16.6965V19.4792H15.3051V16.6965H12.5223ZM18.0878 16.6965V19.4792H20.8706V16.6965H18.0878ZM23.6533 16.6965V19.4792H26.4361V16.6965H23.6533ZM29.2189 16.6965V19.4792H32.0016V16.6965H29.2189ZM12.5223 20.8706V23.6534H15.3051V20.8706H12.5223ZM18.0878 20.8706V23.6534H20.8706V20.8706H18.0878ZM23.6533 20.8706V23.6534H26.4361V20.8706H23.6533ZM29.2189 20.8706V23.6534H32.0016V20.8706H29.2189ZM12.5223 25.0447V27.8275H15.3051V25.0447H12.5223ZM18.0878 25.0447V27.8275H20.8706V25.0447H18.0878ZM23.6533 25.0447V27.8275H26.4361V25.0447H23.6533ZM29.2189 25.0447V27.8275H32.0016V25.0447H29.2189ZM12.5223 29.2189V32.0016H15.3051V29.2189H12.5223ZM29.2189 29.2189V32.0016H32.0016V29.2189H29.2189ZM20.8706 32.0016H23.6533V36.1758H20.8706V32.0016Z" fill="#D85A30"/>
</svg>
