<svg width="37" height="37" viewBox="0 0 37 37" fill="none" xmlns="http://www.w3.org/2000/svg">
<mask id="path-1-inside-1_57_232" fill="white">
<path d="M34.6364 30.3069H33.1932V10.391C33.1932 10.1613 33.102 9.94107 32.9396 9.77868C32.7772 9.61629 32.557 9.52506 32.3273 9.52506H26.2659V5.77277C26.2659 5.54312 26.1747 5.32287 26.0123 5.16048C25.8499 4.99809 25.6297 4.90686 25.4 4.90686H11.5454C11.3158 4.90686 11.0955 4.99809 10.9331 5.16048C10.7707 5.32287 10.6795 5.54312 10.6795 5.77277V14.1433H4.61812C4.38847 14.1433 4.16822 14.2345 4.00583 14.3969C3.84344 14.5593 3.75221 14.7795 3.75221 15.0092V30.3069H2.30903C2.07937 30.3069 1.85912 30.3982 1.69673 30.5606C1.53434 30.7229 1.44312 30.9432 1.44312 31.1728C1.44312 31.4025 1.53434 31.6228 1.69673 31.7851C1.85912 31.9475 2.07937 32.0388 2.30903 32.0388H34.6364C34.8661 32.0388 35.0863 31.9475 35.2487 31.7851C35.4111 31.6228 35.5023 31.4025 35.5023 31.1728C35.5023 30.9432 35.4111 30.7229 35.2487 30.5606C35.0863 30.3982 34.8661 30.3069 34.6364 30.3069ZM5.48404 15.8751H11.5454C11.7751 15.8751 11.9953 15.7838 12.1577 15.6215C12.3201 15.4591 12.4113 15.2388 12.4113 15.0092V6.63868H24.5341V10.391C24.5341 10.6206 24.6253 10.8409 24.7877 11.0033C24.9501 11.1656 25.1704 11.2569 25.4 11.2569H31.4614V30.3069H21.6477V24.2456C21.6477 24.0159 21.5565 23.7957 21.3941 23.6333C21.2317 23.4709 21.0115 23.3796 20.7818 23.3796H16.1636C15.934 23.3796 15.7137 23.4709 15.5513 23.6333C15.3889 23.7957 15.2977 24.0159 15.2977 24.2456V30.3069H5.48404V15.8751ZM19.9159 30.3069H17.0295V25.1115H19.9159V30.3069ZM16.4523 10.391C16.4523 10.1613 16.5435 9.94107 16.7059 9.77868C16.8683 9.61629 17.0885 9.52506 17.3182 9.52506H19.6273C19.8569 9.52506 20.0772 9.61629 20.2396 9.77868C20.4019 9.94107 20.4932 10.1613 20.4932 10.391C20.4932 10.6206 20.4019 10.8409 20.2396 11.0033C20.0772 11.1656 19.8569 11.2569 19.6273 11.2569H17.3182C17.0885 11.2569 16.8683 11.1656 16.7059 11.0033C16.5435 10.8409 16.4523 10.6206 16.4523 10.391ZM16.4523 15.0092C16.4523 14.7795 16.5435 14.5593 16.7059 14.3969C16.8683 14.2345 17.0885 14.1433 17.3182 14.1433H19.6273C19.8569 14.1433 20.0772 14.2345 20.2396 14.3969C20.4019 14.5593 20.4932 14.7795 20.4932 15.0092C20.4932 15.2388 20.4019 15.4591 20.2396 15.6215C20.0772 15.7838 19.8569 15.8751 19.6273 15.8751H17.3182C17.0885 15.8751 16.8683 15.7838 16.7059 15.6215C16.5435 15.4591 16.4523 15.2388 16.4523 15.0092ZM24.5341 15.0092C24.5341 14.7795 24.6253 14.5593 24.7877 14.3969C24.9501 14.2345 25.1704 14.1433 25.4 14.1433H27.7091C27.9388 14.1433 28.159 14.2345 28.3214 14.3969C28.4838 14.5593 28.575 14.7795 28.575 15.0092C28.575 15.2388 28.4838 15.4591 28.3214 15.6215C28.159 15.7838 27.9388 15.8751 27.7091 15.8751H25.4C25.1704 15.8751 24.9501 15.7838 24.7877 15.6215C24.6253 15.4591 24.5341 15.2388 24.5341 15.0092ZM12.4113 19.6274C12.4113 19.857 12.3201 20.0773 12.1577 20.2397C11.9953 20.402 11.7751 20.4933 11.5454 20.4933H9.23632C9.00667 20.4933 8.78642 20.402 8.62403 20.2397C8.46164 20.0773 8.37041 19.857 8.37041 19.6274C8.37041 19.3977 8.46164 19.1775 8.62403 19.0151C8.78642 18.8527 9.00667 18.7614 9.23632 18.7614H11.5454C11.7751 18.7614 11.9953 18.8527 12.1577 19.0151C12.3201 19.1775 12.4113 19.3977 12.4113 19.6274ZM12.4113 24.2456C12.4113 24.4752 12.3201 24.6955 12.1577 24.8578C11.9953 25.0202 11.7751 25.1115 11.5454 25.1115H9.23632C9.00667 25.1115 8.78642 25.0202 8.62403 24.8578C8.46164 24.6955 8.37041 24.4752 8.37041 24.2456C8.37041 24.0159 8.46164 23.7957 8.62403 23.6333C8.78642 23.4709 9.00667 23.3796 9.23632 23.3796H11.5454C11.7751 23.3796 11.9953 23.4709 12.1577 23.6333C12.3201 23.7957 12.4113 24.0159 12.4113 24.2456ZM16.4523 19.6274C16.4523 19.3977 16.5435 19.1775 16.7059 19.0151C16.8683 18.8527 17.0885 18.7614 17.3182 18.7614H19.6273C19.8569 18.7614 20.0772 18.8527 20.2396 19.0151C20.4019 19.1775 20.4932 19.3977 20.4932 19.6274C20.4932 19.857 20.4019 20.0773 20.2396 20.2397C20.0772 20.402 19.8569 20.4933 19.6273 20.4933H17.3182C17.0885 20.4933 16.8683 20.402 16.7059 20.2397C16.5435 20.0773 16.4523 19.857 16.4523 19.6274ZM24.5341 19.6274C24.5341 19.3977 24.6253 19.1775 24.7877 19.0151C24.9501 18.8527 25.1704 18.7614 25.4 18.7614H27.7091C27.9388 18.7614 28.159 18.8527 28.3214 19.0151C28.4838 19.1775 28.575 19.3977 28.575 19.6274C28.575 19.857 28.4838 20.0773 28.3214 20.2397C28.159 20.402 27.9388 20.4933 27.7091 20.4933H25.4C25.1704 20.4933 24.9501 20.402 24.7877 20.2397C24.6253 20.0773 24.5341 19.857 24.5341 19.6274ZM24.5341 24.2456C24.5341 24.0159 24.6253 23.7957 24.7877 23.6333C24.9501 23.4709 25.1704 23.3796 25.4 23.3796H27.7091C27.9388 23.3796 28.159 23.4709 28.3214 23.6333C28.4838 23.7957 28.575 24.0159 28.575 24.2456C28.575 24.4752 28.4838 24.6955 28.3214 24.8578C28.159 25.0202 27.9388 25.1115 27.7091 25.1115H25.4C25.1704 25.1115 24.9501 25.0202 24.7877 24.8578C24.6253 24.6955 24.5341 24.4752 24.5341 24.2456Z"/>
</mask>
<path d="M34.6364 30.3069H33.1932V10.391C33.1932 10.1613 33.102 9.94107 32.9396 9.77868C32.7772 9.61629 32.557 9.52506 32.3273 9.52506H26.2659V5.77277C26.2659 5.54312 26.1747 5.32287 26.0123 5.16048C25.8499 4.99809 25.6297 4.90686 25.4 4.90686H11.5454C11.3158 4.90686 11.0955 4.99809 10.9331 5.16048C10.7707 5.32287 10.6795 5.54312 10.6795 5.77277V14.1433H4.61812C4.38847 14.1433 4.16822 14.2345 4.00583 14.3969C3.84344 14.5593 3.75221 14.7795 3.75221 15.0092V30.3069H2.30903C2.07937 30.3069 1.85912 30.3982 1.69673 30.5606C1.53434 30.7229 1.44312 30.9432 1.44312 31.1728C1.44312 31.4025 1.53434 31.6228 1.69673 31.7851C1.85912 31.9475 2.07937 32.0388 2.30903 32.0388H34.6364C34.8661 32.0388 35.0863 31.9475 35.2487 31.7851C35.4111 31.6228 35.5023 31.4025 35.5023 31.1728C35.5023 30.9432 35.4111 30.7229 35.2487 30.5606C35.0863 30.3982 34.8661 30.3069 34.6364 30.3069ZM5.48404 15.8751H11.5454C11.7751 15.8751 11.9953 15.7838 12.1577 15.6215C12.3201 15.4591 12.4113 15.2388 12.4113 15.0092V6.63868H24.5341V10.391C24.5341 10.6206 24.6253 10.8409 24.7877 11.0033C24.9501 11.1656 25.1704 11.2569 25.4 11.2569H31.4614V30.3069H21.6477V24.2456C21.6477 24.0159 21.5565 23.7957 21.3941 23.6333C21.2317 23.4709 21.0115 23.3796 20.7818 23.3796H16.1636C15.934 23.3796 15.7137 23.4709 15.5513 23.6333C15.3889 23.7957 15.2977 24.0159 15.2977 24.2456V30.3069H5.48404V15.8751ZM19.9159 30.3069H17.0295V25.1115H19.9159V30.3069ZM16.4523 10.391C16.4523 10.1613 16.5435 9.94107 16.7059 9.77868C16.8683 9.61629 17.0885 9.52506 17.3182 9.52506H19.6273C19.8569 9.52506 20.0772 9.61629 20.2396 9.77868C20.4019 9.94107 20.4932 10.1613 20.4932 10.391C20.4932 10.6206 20.4019 10.8409 20.2396 11.0033C20.0772 11.1656 19.8569 11.2569 19.6273 11.2569H17.3182C17.0885 11.2569 16.8683 11.1656 16.7059 11.0033C16.5435 10.8409 16.4523 10.6206 16.4523 10.391ZM16.4523 15.0092C16.4523 14.7795 16.5435 14.5593 16.7059 14.3969C16.8683 14.2345 17.0885 14.1433 17.3182 14.1433H19.6273C19.8569 14.1433 20.0772 14.2345 20.2396 14.3969C20.4019 14.5593 20.4932 14.7795 20.4932 15.0092C20.4932 15.2388 20.4019 15.4591 20.2396 15.6215C20.0772 15.7838 19.8569 15.8751 19.6273 15.8751H17.3182C17.0885 15.8751 16.8683 15.7838 16.7059 15.6215C16.5435 15.4591 16.4523 15.2388 16.4523 15.0092ZM24.5341 15.0092C24.5341 14.7795 24.6253 14.5593 24.7877 14.3969C24.9501 14.2345 25.1704 14.1433 25.4 14.1433H27.7091C27.9388 14.1433 28.159 14.2345 28.3214 14.3969C28.4838 14.5593 28.575 14.7795 28.575 15.0092C28.575 15.2388 28.4838 15.4591 28.3214 15.6215C28.159 15.7838 27.9388 15.8751 27.7091 15.8751H25.4C25.1704 15.8751 24.9501 15.7838 24.7877 15.6215C24.6253 15.4591 24.5341 15.2388 24.5341 15.0092ZM12.4113 19.6274C12.4113 19.857 12.3201 20.0773 12.1577 20.2397C11.9953 20.402 11.7751 20.4933 11.5454 20.4933H9.23632C9.00667 20.4933 8.78642 20.402 8.62403 20.2397C8.46164 20.0773 8.37041 19.857 8.37041 19.6274C8.37041 19.3977 8.46164 19.1775 8.62403 19.0151C8.78642 18.8527 9.00667 18.7614 9.23632 18.7614H11.5454C11.7751 18.7614 11.9953 18.8527 12.1577 19.0151C12.3201 19.1775 12.4113 19.3977 12.4113 19.6274ZM12.4113 24.2456C12.4113 24.4752 12.3201 24.6955 12.1577 24.8578C11.9953 25.0202 11.7751 25.1115 11.5454 25.1115H9.23632C9.00667 25.1115 8.78642 25.0202 8.62403 24.8578C8.46164 24.6955 8.37041 24.4752 8.37041 24.2456C8.37041 24.0159 8.46164 23.7957 8.62403 23.6333C8.78642 23.4709 9.00667 23.3796 9.23632 23.3796H11.5454C11.7751 23.3796 11.9953 23.4709 12.1577 23.6333C12.3201 23.7957 12.4113 24.0159 12.4113 24.2456ZM16.4523 19.6274C16.4523 19.3977 16.5435 19.1775 16.7059 19.0151C16.8683 18.8527 17.0885 18.7614 17.3182 18.7614H19.6273C19.8569 18.7614 20.0772 18.8527 20.2396 19.0151C20.4019 19.1775 20.4932 19.3977 20.4932 19.6274C20.4932 19.857 20.4019 20.0773 20.2396 20.2397C20.0772 20.402 19.8569 20.4933 19.6273 20.4933H17.3182C17.0885 20.4933 16.8683 20.402 16.7059 20.2397C16.5435 20.0773 16.4523 19.857 16.4523 19.6274ZM24.5341 19.6274C24.5341 19.3977 24.6253 19.1775 24.7877 19.0151C24.9501 18.8527 25.1704 18.7614 25.4 18.7614H27.7091C27.9388 18.7614 28.159 18.8527 28.3214 19.0151C28.4838 19.1775 28.575 19.3977 28.575 19.6274C28.575 19.857 28.4838 20.0773 28.3214 20.2397C28.159 20.402 27.9388 20.4933 27.7091 20.4933H25.4C25.1704 20.4933 24.9501 20.402 24.7877 20.2397C24.6253 20.0773 24.5341 19.857 24.5341 19.6274ZM24.5341 24.2456C24.5341 24.0159 24.6253 23.7957 24.7877 23.6333C24.9501 23.4709 25.1704 23.3796 25.4 23.3796H27.7091C27.9388 23.3796 28.159 23.4709 28.3214 23.6333C28.4838 23.7957 28.575 24.0159 28.575 24.2456C28.575 24.4752 28.4838 24.6955 28.3214 24.8578C28.159 25.0202 27.9388 25.1115 27.7091 25.1115H25.4C25.1704 25.1115 24.9501 25.0202 24.7877 24.8578C24.6253 24.6955 24.5341 24.4752 24.5341 24.2456Z" fill="#D85A30" stroke="#D85A30" stroke-width="3.78929" mask="url(#path-1-inside-1_57_232)"/>
</svg>
