<svg width="46" height="46" viewBox="0 0 46 46" fill="none" xmlns="http://www.w3.org/2000/svg">
<path d="M6.63135 35.9983C7.92728 30.6222 14.6438 26.5251 22.7358 26.5251C30.8279 26.5251 37.5444 30.6222 38.8403 35.9983M33.1564 10.4206C37.676 10.4206 41.6823 14.1218 41.6823 18.9465M21.7885 8.8395C25.2405 5.30883 30.3097 6.13868 33.1564 10.4206C35.5919 13.0475 35.7255 17.2669 33.289 19.8938M33.1564 10.4206C34.7081 7.73208 34.3197 4.06026 31.6312 2.50854" stroke="#D85A30" stroke-width="1.89464" stroke-linecap="round" stroke-linejoin="round"/>
<path d="M17.9992 26.525C17.9992 17.6306 25.2093 10.4205 34.1037 10.4205C29.3604 10.4205 25.5143 17.6306 25.5143 26.525M2.84204 42.6295C4.63248 42.6295 6.42292 42.1028 7.97653 41.0475C8.4203 40.7533 8.9409 40.5965 9.4733 40.5965C10.0057 40.5965 10.5263 40.7533 10.9701 41.0475C12.4842 42.0777 14.2731 42.6289 16.1046 42.6295C17.895 42.6295 19.6854 42.1028 21.239 41.0475C21.6828 40.7533 22.2034 40.5965 22.7358 40.5965C23.2682 40.5965 23.7888 40.7533 24.2326 41.0475C25.7467 42.0777 27.5357 42.6289 29.3671 42.6295C31.1575 42.6295 32.9479 42.1028 34.5015 41.0475C34.9453 40.7533 35.4659 40.5965 35.9983 40.5965C36.5307 40.5965 37.0513 40.7533 37.4951 41.0475C39.0092 42.0777 40.7982 42.6289 42.6296 42.6295" stroke="#D85A30" stroke-width="1.89464" stroke-linecap="round" stroke-linejoin="round"/>
</svg>
